<?xml version="1.0" standalone="no"?>
<!DOCTYPE svg PUBLIC "-//W3C//DTD SVG 20010904//EN"
 "http://www.w3.org/TR/2001/REC-SVG-20010904/DTD/svg10.dtd">
<svg version="1.0" xmlns="http://www.w3.org/2000/svg"
 width="1000.000000pt" height="1000.000000pt" viewBox="0 0 1000.000000 1000.000000"
 preserveAspectRatio="xMidYMid meet">
<metadata>
Created by potrace 1.15, written by Peter Selinger 2001-2017
</metadata>
<g transform="translate(0.000000,1000.000000) scale(0.100000,-0.100000)"
fill="#000000" stroke="none">
<path d="M1400 6836 c0 -2 152 -348 338 -768 l338 -763 88 0 88 0 339 765
c187 421 339 766 339 768 0 1 -40 2 -89 2 l-88 0 -288 -651 c-159 -357 -292
-652 -295 -654 -4 -3 -137 290 -296 650 l-288 655 -93 0 c-51 0 -93 -2 -93 -4z"/>
<path d="M3370 6070 l0 -770 85 0 85 0 0 770 0 770 -85 0 -85 0 0 -770z"/>
<path d="M4260 6070 l0 -770 515 0 515 0 0 75 0 75 -430 0 -430 0 0 695 0 695
-85 0 -85 0 0 -770z"/>
<path d="M5780 6070 l0 -770 515 0 515 0 0 75 0 75 -430 0 -430 0 0 695 0 695
-85 0 -85 0 0 -770z"/>
<path d="M7435 6143 c-175 -384 -333 -731 -351 -770 l-33 -73 92 0 92 1 90
202 90 202 421 3 421 2 91 -202 91 -203 91 -3 c74 -2 91 0 88 11 -2 8 -158
354 -348 770 l-345 756 -85 1 -86 0 -319 -697z m585 98 c94 -211 169 -385 167
-387 -2 -2 -162 -3 -354 -2 l-350 3 175 393 c97 216 179 389 183 385 4 -5 85
-181 179 -392z"/>
<path d="M2310 4675 c-247 -55 -451 -219 -549 -440 -81 -182 -82 -462 -3 -647
67 -153 203 -297 354 -371 143 -70 195 -81 388 -82 127 0 180 4 230 18 101 27
223 92 288 152 l57 54 -53 53 c-39 39 -56 50 -66 43 -137 -100 -166 -117 -240
-141 -364 -115 -742 87 -832 446 -24 95 -15 271 18 361 37 100 74 157 154 236
221 218 586 243 834 57 l73 -55 54 53 c29 29 53 55 53 59 0 14 -126 107 -185
137 -120 60 -186 74 -355 78 -110 3 -174 -1 -220 -11z"/>
<path d="M4031 4638 c-10 -24 -166 -365 -346 -758 -180 -393 -330 -721 -332
-728 -4 -10 15 -12 87 -10 l92 3 91 203 90 202 422 0 421 0 90 -202 91 -203
91 -3 c51 -1 92 1 91 5 0 4 -157 350 -348 768 l-348 760 -87 3 -86 3 -19 -43z
m279 -538 c94 -212 174 -391 177 -397 4 -10 -70 -13 -352 -13 -282 0 -356 3
-352 13 17 42 351 786 352 784 2 -1 80 -175 175 -387z"/>
<path d="M5440 4675 c0 -3 149 -161 330 -351 l331 -346 -54 -61 c-125 -145
-647 -766 -647 -771 0 -3 46 -6 103 -5 l102 0 305 354 305 354 153 -152 152
-152 0 -202 0 -203 90 0 90 0 0 770 0 770 -90 0 -90 0 -2 -453 -3 -454 -439
454 -440 453 -98 0 c-54 0 -98 -2 -98 -5z"/>
<path d="M7220 3910 l0 -770 545 0 545 0 0 75 0 75 -460 0 -460 0 0 280 0 280
395 0 395 0 0 75 0 75 -395 0 -395 0 0 265 0 265 445 0 445 0 0 75 0 75 -530
0 -530 0 0 -770z"/>
</g>
</svg>
